<svg width="203" height="202" viewBox="0 0 203 202" fill="none" xmlns="http://www.w3.org/2000/svg">
<mask id="mask0_35_457" style="mask-type:alpha" maskUnits="userSpaceOnUse" x="-1" y="-2" width="205" height="204">
<rect x="-0.5" y="-1.5" width="204" height="203" rx="15.5" fill="#D9D9D9" stroke="#ECEDED"/>
</mask>
<g mask="url(#mask0_35_457)">
<g opacity="0.28">
<path fill-rule="evenodd" clip-rule="evenodd" d="M103.733 52.8254C105.543 52.8254 106.991 54.3009 106.991 56.0827V144.558C106.991 146.367 105.515 147.815 103.733 147.815C101.924 147.815 100.476 146.339 100.476 144.558V56.1105C100.476 54.3009 101.952 52.8532 103.733 52.8532V52.8254Z" fill="white" stroke="#231F20" stroke-miterlimit="10"/>
<path d="M103.733 148.539C101.534 148.539 99.7522 146.757 99.7522 144.558V56.1105C99.7522 53.9112 101.534 52.1294 103.733 52.1294C105.933 52.1294 107.714 53.9112 107.714 56.1105V144.586C107.714 146.785 105.933 148.567 103.733 148.567V148.539ZM103.733 53.5214C102.313 53.5214 101.172 54.6628 101.172 56.0827V144.558C101.172 145.977 102.313 147.119 103.733 147.119C105.153 147.119 106.295 145.977 106.295 144.558V56.1105C106.295 54.6907 105.153 53.5492 103.733 53.5492V53.5214Z" fill="#070707" stroke="#231F20" stroke-miterlimit="10"/>
<path fill-rule="evenodd" clip-rule="evenodd" d="M151.256 100.348C151.256 102.158 149.78 103.633 147.999 103.633H59.4958C57.6862 103.633 56.2386 102.158 56.2386 100.348C56.2386 98.5384 57.7141 97.0907 59.4958 97.0907H147.971C149.78 97.0907 151.228 98.5663 151.228 100.348H151.256Z" fill="white" stroke="#231F20" stroke-miterlimit="10"/>
<path d="M147.971 104.329H59.4958C57.2965 104.329 55.5147 102.547 55.5147 100.348C55.5147 98.1487 57.2965 96.3669 59.4958 96.3669H147.971C150.17 96.3669 151.952 98.1487 151.952 100.348C151.952 102.547 150.17 104.329 147.971 104.329ZM59.4958 97.7867C58.076 97.7867 56.9345 98.9282 56.9345 100.348C56.9345 101.768 58.076 102.909 59.4958 102.909H147.971C149.391 102.909 150.532 101.768 150.532 100.348C150.532 98.9282 149.391 97.7867 147.971 97.7867H59.4958Z" fill="#070707" stroke="#231F20" stroke-miterlimit="10"/>
<path fill-rule="evenodd" clip-rule="evenodd" d="M103.733 141.662C126.506 141.662 145.075 123.093 145.075 100.32C145.075 77.5472 126.506 58.978 103.733 58.978C80.9603 58.978 62.3912 77.5472 62.3912 100.32C62.3912 123.093 80.9603 141.662 103.733 141.662Z" fill="white" stroke="#231F20" stroke-miterlimit="10"/>
<path d="M103.733 142.386C80.5427 142.386 61.6673 123.511 61.6673 100.348C61.6673 77.1853 80.5427 58.282 103.733 58.282C126.924 58.282 145.799 77.1574 145.799 100.348C145.799 123.539 126.924 142.386 103.733 142.386ZM103.733 59.7018C81.3223 59.7018 63.0872 77.9369 63.0872 100.348C63.0872 122.759 81.3223 140.966 103.733 140.966C126.144 140.966 144.379 122.731 144.379 100.348C144.379 77.9648 126.144 59.7018 103.733 59.7018Z" fill="#070707" stroke="#231F20" stroke-miterlimit="10"/>
<path fill-rule="evenodd" clip-rule="evenodd" d="M131.907 54.7185L153.4 76.2109C154.875 77.6864 157.297 77.6864 158.773 76.2109L181.044 53.939L154.151 27.0735L131.879 49.3454C130.404 50.8209 130.404 53.243 131.879 54.7185H131.907Z" fill="white" stroke="#231F20" stroke-miterlimit="10"/>
<path d="M156.072 78.0483C154.875 78.0483 153.734 77.575 152.871 76.7398L131.378 55.2475C130.515 54.4123 130.07 53.2708 130.07 52.0737C130.07 50.8766 130.543 49.7352 131.378 48.8721L154.151 26.0713L182.019 53.939L159.246 76.712C158.411 77.575 157.269 78.0205 156.044 78.0205L156.072 78.0483ZM154.151 28.1036L132.38 49.8744C131.796 50.459 131.49 51.2385 131.49 52.0459C131.49 52.8811 131.796 53.6606 132.38 54.2174L153.873 75.7098C155.042 76.879 157.074 76.879 158.244 75.7098L180.014 53.939L154.151 28.0758V28.1036Z" fill="#070707" stroke="#231F20" stroke-miterlimit="10"/>
<path fill-rule="evenodd" clip-rule="evenodd" d="M158.745 25.9878L182.13 49.3733C183.606 50.8488 185.081 53.6328 182.437 54.4401L179.736 55.2753L152.843 28.382L153.678 25.6816C154.569 22.7305 157.269 24.5123 158.745 25.9878Z" fill="white" stroke="#231F20" stroke-miterlimit="10"/>
<path d="M179.513 56.0548L152.063 28.6047L153.01 25.4867C153.567 23.6771 154.736 23.3987 155.404 23.3987C156.991 23.3987 158.633 24.8742 159.246 25.5145L182.631 48.9C183.745 50.0136 184.914 51.851 184.524 53.3822C184.385 53.9668 183.94 54.7742 182.631 55.1361L179.513 56.0827V56.0548ZM153.65 28.1871L179.931 54.468L182.242 53.772C183.021 53.5214 183.132 53.1316 183.16 53.0203C183.355 52.2964 182.687 50.9601 181.629 49.9022L158.244 26.4889C157.214 25.4588 156.1 24.7907 155.404 24.7907C155.209 24.7907 154.708 24.7907 154.374 25.8764L153.678 28.1871H153.65Z" fill="#070707" stroke="#231F20" stroke-miterlimit="10"/>
<path fill-rule="evenodd" clip-rule="evenodd" d="M78.0928 145.282L56.6004 123.789C55.1249 122.314 52.7029 122.314 51.2273 123.789L28.9555 146.061L55.8209 172.926L78.0928 150.655C79.5683 149.179 79.5683 146.757 78.0928 145.282Z" fill="white" stroke="#231F20" stroke-miterlimit="10"/>
<path d="M55.8209 173.929L27.9532 146.033L50.7262 123.26C52.4245 121.562 55.4033 121.562 57.1016 123.26L78.5939 144.753C80.3478 146.506 80.3478 149.374 78.5939 151.128L55.8209 173.901V173.929ZM29.9577 146.033L55.8209 171.896L77.5917 150.126C78.7888 148.929 78.7888 146.952 77.5917 145.755L56.0993 124.262C54.93 123.093 52.8977 123.093 51.7285 124.262L29.9577 146.033Z" fill="#070707" stroke="#231F20" stroke-miterlimit="10"/>
<path fill-rule="evenodd" clip-rule="evenodd" d="M51.2552 174.012L27.8697 150.627C26.3942 149.151 24.9187 146.367 27.5635 145.56L30.264 144.725L57.1294 171.59L56.3221 174.291C55.4312 177.242 52.7307 175.46 51.2552 173.984V174.012Z" fill="white" stroke="#231F20" stroke-miterlimit="10"/>
<path d="M54.596 176.629C53.0091 176.629 51.3666 175.154 50.7541 174.513L27.3686 151.128C26.255 150.014 25.0858 148.177 25.4755 146.673C25.6147 146.089 26.0601 145.282 27.3686 144.892L30.4867 143.945L57.9646 171.423L57.018 174.541C56.4613 176.351 55.292 176.629 54.6238 176.629H54.596ZM30.0691 145.532L27.7584 146.228C26.951 146.479 26.8675 146.868 26.8397 146.98C26.6448 147.704 27.3129 149.04 28.3709 150.098L51.7563 173.483C52.7864 174.513 53.9 175.181 54.596 175.181C54.7909 175.181 55.292 175.181 55.6261 174.096L56.3221 171.785L30.0691 145.532Z" fill="#070707" stroke="#231F20" stroke-miterlimit="10"/>
<path fill-rule="evenodd" clip-rule="evenodd" d="M150.282 126.907L128.789 148.4C127.314 149.875 127.314 152.297 128.789 153.773L151.061 176.045L177.926 149.179L155.655 126.907C154.179 125.432 151.757 125.432 150.282 126.907Z" fill="white" stroke="#231F20" stroke-miterlimit="10"/>
<path d="M151.033 177.047L128.26 154.274C126.506 152.52 126.506 149.652 128.26 147.898L149.753 126.406C151.451 124.708 154.43 124.708 156.128 126.406L178.901 149.179L151.033 177.047ZM152.954 126.517C152.119 126.517 151.339 126.852 150.783 127.408L129.29 148.901C128.093 150.098 128.093 152.074 129.29 153.272L151.061 175.042L176.924 149.179L155.153 127.408C154.569 126.824 153.789 126.517 152.982 126.517H152.954Z" fill="#070707" stroke="#231F20" stroke-miterlimit="10"/>
<path fill-rule="evenodd" clip-rule="evenodd" d="M179.012 153.745L155.627 177.13C154.151 178.606 151.367 180.081 150.56 177.437L149.753 174.736L176.618 147.871L179.318 148.706C182.27 149.597 180.488 152.297 179.012 153.773V153.745Z" fill="white" stroke="#231F20" stroke-miterlimit="10"/>
<path d="M152.258 179.608C151.59 179.608 150.393 179.357 149.864 177.659L148.917 174.541L176.395 147.063L179.513 148.01C180.905 148.427 181.379 149.235 181.546 149.819C181.991 151.545 180.265 153.494 179.513 154.246L156.128 177.631C155.181 178.578 153.65 179.608 152.286 179.608H152.258ZM150.532 174.931L151.228 177.242C151.479 178.077 151.924 178.188 152.258 178.188C153.01 178.188 154.179 177.548 155.098 176.629L178.483 153.244C179.653 152.074 180.321 150.849 180.154 150.181C180.07 149.847 179.708 149.569 179.096 149.374L176.785 148.678L150.504 174.959L150.532 174.931Z" fill="#070707" stroke="#231F20" stroke-miterlimit="10"/>
<path fill-rule="evenodd" clip-rule="evenodd" d="M59.7185 73.0928L81.2109 51.6004C82.6864 50.1249 82.6864 47.7029 81.2109 46.2274L58.9668 23.9555L32.0735 50.8488L54.3454 73.1206C55.8209 74.5961 58.243 74.5961 59.7185 73.1206V73.0928Z" fill="white" stroke="#231F20" stroke-miterlimit="10"/>
<path d="M57.0459 74.9302C55.8488 74.9302 54.7073 74.457 53.8443 73.6218L31.0713 50.8488L58.9668 22.9533L81.7398 45.7262C82.6029 46.5614 83.0483 47.7029 83.0483 48.9C83.0483 50.0971 82.575 51.2385 81.7398 52.1016L60.2475 73.5939C59.4123 74.457 58.2708 74.9024 57.0737 74.9024L57.0459 74.9302ZM33.0758 50.8488L54.8465 72.6195C56.0158 73.7888 58.0481 73.7888 59.2174 72.6195L80.7098 51.1272C81.2944 50.5425 81.6006 49.763 81.6006 48.9557C81.6006 48.1483 81.2944 47.341 80.7098 46.7842L58.9668 24.9577L33.0758 50.8488Z" fill="#070707" stroke="#231F20" stroke-miterlimit="10"/>
<path fill-rule="evenodd" clip-rule="evenodd" d="M30.9878 46.2552L54.3733 22.8697C55.8488 21.3942 58.6328 19.9187 59.4401 22.5635L60.2753 25.264L33.382 52.1573L30.6816 51.3499C27.7306 50.459 29.5123 47.7586 30.9878 46.283V46.2552Z" fill="white" stroke="#231F20" stroke-miterlimit="10"/>
<path d="M33.5769 52.9368L30.4589 51.9902C29.0669 51.5726 28.5936 50.7653 28.4265 50.1806C28.009 48.4546 29.7072 46.5058 30.4589 45.7541L53.8722 22.3686C54.8187 21.4221 56.3499 20.392 57.7141 20.392C58.3822 20.392 59.5793 20.6426 60.1083 22.3686L61.0548 25.4867L33.5769 52.9368ZM57.7419 21.8118C56.9902 21.8118 55.8209 22.4521 54.9022 23.3709L31.4889 46.7563C30.3197 47.9256 29.6515 49.1505 29.8185 49.8187C29.9021 50.1528 30.264 50.4312 30.8765 50.6261L33.1872 51.3221L59.468 25.0691L58.772 22.7584C58.5214 21.9232 58.076 21.8118 57.7419 21.8118Z" fill="#070707" stroke="#231F20" stroke-miterlimit="10"/>
</g>
<path opacity="0.62" d="M100.692 93.5C101.042 93.5 101.325 93.6083 101.542 93.825C101.775 94.025 101.892 94.3 101.892 94.65C101.892 95 101.775 95.275 101.542 95.475C101.325 95.675 101.042 95.775 100.692 95.775H96.2416V109.8C96.2416 110.133 96.1166 110.417 95.8666 110.65C95.6333 110.883 95.3333 111 94.9666 111C94.5999 111 94.2916 110.883 94.0416 110.65C93.8083 110.417 93.6916 110.133 93.6916 109.8V95.775H89.2666C88.9166 95.775 88.6249 95.675 88.3916 95.475C88.1749 95.2583 88.0666 94.975 88.0666 94.625C88.0666 94.2917 88.1749 94.025 88.3916 93.825C88.6249 93.6083 88.9166 93.5 89.2666 93.5H100.692ZM109.571 99.925C110.521 99.925 111.371 100.167 112.121 100.65C112.888 101.117 113.488 101.758 113.921 102.575C114.355 103.392 114.571 104.308 114.571 105.325C114.571 106.508 114.296 107.55 113.746 108.45C113.196 109.35 112.438 110.042 111.471 110.525C110.505 111.008 109.396 111.25 108.146 111.25C107.48 111.25 106.83 111.158 106.196 110.975C105.58 110.792 105.046 110.525 104.596 110.175C104.146 109.925 103.921 109.583 103.921 109.15C103.921 108.833 104.03 108.542 104.246 108.275C104.48 108.008 104.755 107.875 105.071 107.875C105.371 107.875 105.671 107.983 105.971 108.2C106.655 108.833 107.513 109.15 108.546 109.15C109.196 109.15 109.796 109 110.346 108.7C110.913 108.4 111.363 107.975 111.696 107.425C112.03 106.858 112.196 106.208 112.196 105.475C112.196 104.392 111.863 103.558 111.196 102.975C110.53 102.392 109.73 102.1 108.796 102.1C108.53 102.1 108.146 102.158 107.646 102.275C107.28 102.375 107.005 102.425 106.821 102.425C106.521 102.425 106.28 102.325 106.096 102.125C105.913 101.908 105.821 101.642 105.821 101.325C105.821 101.142 105.855 100.983 105.921 100.85C105.988 100.717 106.096 100.558 106.246 100.375L110.496 95.7H104.721C104.405 95.7 104.138 95.5917 103.921 95.375C103.705 95.1583 103.596 94.8917 103.596 94.575C103.596 94.2583 103.705 94 103.921 93.8C104.138 93.6 104.405 93.5 104.721 93.5H112.696C113.08 93.5 113.38 93.6167 113.596 93.85C113.813 94.0833 113.921 94.3667 113.921 94.7C113.921 95 113.763 95.3083 113.446 95.625L109.571 99.925Z" fill="#A2774C"/>
</g>
</svg>
